<svg class="logo-desktop-main" viewBox="0 0 101 124" fill="none" xmlns="http://www.w3.org/2000/svg">
    <path d="
        M 71.6725 0
        H 49.5146
        V 25.4923
        H 71.6725
        V 0
        Z" fill="#2a3647" />
    <path d="
        M 49.5142 46.2251
        H 71.6721
        V 82.1779
        C 71.7733 90.8292 69.3112 99.3153 64.5986 106.557
        C 59.9455 113.594 50.963 121.966 34.3446 121.966
        C 16.2434 121.966 5.69286 113.406 0 108.715
        L 13.9765 91.4743
        C 19.533 96.0112 24.885 99.7435 34.4299 99.7435
        C 41.6567 99.7435 44.5372 96.7988 46.2247 94.2307
        C 48.5186 90.6637 49.7052 86.4923 49.6335 82.2464
        L 49.5142 46.2251
        Z" fill="#2a3647" />
    <path d="
        M 38.2135 30.1318
        H 16.0557
        V 52.3884
        H 38.2135
        V 30.1318
        Z" fill="#29abe2" />
    <path d="
        M 83.2795 111.522
        C 83.2795 116.265 80.8762 118.815 77.5184 118.815
        C 74.1607 118.815 71.9619 115.785 71.9619 111.762
        C 71.9619 107.739 74.2288 104.554 77.7059 104.554
        C 81.183 104.554 83.2795 107.687 83.2795 111.522
        Z
        M 74.5356 111.711
        C 74.5356 114.57 75.6776 116.675 77.6377 116.675
        C 79.5978 116.675 80.7057 114.45 80.7057 111.539
        C 80.7057 108.988 79.6831 106.592 77.6377 106.592
        C 75.5924 106.592 74.5356 108.903 74.5356 111.711
        Z" fill="#2a3647" />
    <path d="
        M 87.6771 104.76
        V 118.593
        H 85.2227
        V 104.76
        H 87.6771
        Z" fill="#2a3647" />
    <path d="
        M 90.3359 118.593
        V 104.76H93.0631
        L 95.9947 110.461
        C 96.7494 111.952 97.4209 113.483 98.006 115.049
        C 97.8526 113.337 97.7844 111.368 97.7844 109.177
        V 104.76
        H 100.034
        V 118.593
        H 97.4946
        L 94.5289 112.772
        C 93.7437 111.243 93.0438 109.671 92.4324 108.064
        C 92.4324 109.776 92.5517 111.711 92.5517 114.09
        V 118.576L90.3359 118.593
        Z" fill="#2a3647" />
</svg>